<svg xmlns="http://www.w3.org/2000/svg" width="204" height="75" viewBox="0 0 204 74.939" shape-rendering="geometricPrecision" image-rendering="optimizeQuality" fill-rule="evenodd" xmlns:v="https://vecta.io/nano"><g fill="#fefefe" fill-rule="nonzero"><path d="M60.432 26.574h9.04v-1.206h-7.7V19.8h6.922v-1.206h-6.922v-5.072h7.382V12.32H60.43v14.255zM84.538 23.5c-1.005 1.532-2.78 2.218-4.202 2.218-3.725 0-6.043-2.737-6.043-6.286 0-3.54 2.318-6.277 6.043-6.277 1.423 0 2.938.602 3.825 1.933l1.08-.904c-1.247-1.6-2.97-2.234-4.905-2.234-4.352 0-7.374 3.14-7.374 7.482 0 4.353 3.02 7.492 7.374 7.492 2.093 0 3.942-.745 5.3-2.595l-1.088-.83zm4.118-4.06c0 4.344 3.02 7.482 7.374 7.482 4.344 0 7.366-3.14 7.366-7.482 0-4.353-3.022-7.492-7.366-7.492-4.352 0-7.374 3.14-7.374 7.492zm1.33 0c0-3.55 2.318-6.286 6.043-6.286 3.716 0 6.035 2.737 6.035 6.286 0 3.54-2.32 6.277-6.035 6.277-3.725 0-6.043-2.737-6.043-6.277zm17.77 7.123h1.322V14h.042l5.516 12.564h.586L120.655 14h.042v12.564h1.33V12.32h-1.9l-5.198 11.96-5.2-11.96h-1.992l.001 14.255zm19.418 0h1.322V14h.042l5.516 12.564h.586L140.073 14h.042v12.564h1.33V12.32h-1.892l-5.198 11.96-5.2-11.96h-1.992v14.255zm19.553 0h9.04v-1.206h-7.7V19.8h6.922v-1.206h-6.922v-5.072h7.4V12.32h-8.722l.001 14.255zm14.8-13.04h2.82c2.796 0 3.34 1.548 3.34 2.536 0 .98-.544 2.536-3.34 2.536h-2.82v-5.072zm-1.33 13.04h1.33V19.8h2.478l4 6.763h1.515l-4.152-6.847c1.574-.2 3.65-.946 3.65-3.666 0-3.742-3.95-3.742-5.08-3.742h-3.74v14.255zm24.106-3.064c-1.005 1.532-2.78 2.218-4.202 2.218-3.725 0-6.044-2.737-6.044-6.286 0-3.54 2.32-6.277 6.044-6.277 1.422 0 2.937.602 3.825 1.933l1.088-.904c-1.255-1.6-2.98-2.234-4.913-2.234-4.352 0-7.366 3.14-7.366 7.482 0 4.353 3.014 7.492 7.366 7.492 2.092 0 3.942-.745 5.3-2.595l-1.088-.83zm5.047 3.064h9.04v-1.206h-7.7V19.8h6.922v-1.206h-6.922v-5.072h7.382V12.32h-8.713v14.255zM68.384 37.387V49.7h-3.742V37.387h-4.377V34.2H72.77v3.188h-4.385zm7.683 12.305V34.2h10.42v3.147h-6.813v2.938h6.437v2.996h-6.437v3.223h7.207v3.2H76.067zm28.936 0l.084-10.965h-.067l-4.026 10.965h-2.63l-3.917-10.965h-.067l.093 10.965H90.95V34.2h5.323l3.532 9.935h.084l3.373-9.935h5.415v15.493h-3.674zM125.2 38.97c0 .904-.168 1.666-.503 2.286s-.786 1.12-1.356 1.498c-.57.385-1.23.66-1.975.837s-1.515.26-2.318.26H117.2v5.842h-3.742V34.2h5.692c.845 0 1.632.083 2.37.25s1.38.435 1.933.803a4 4 0 0 1 1.289 1.473c.3.603.47 1.348.47 2.243zm-3.742.017c0-.36-.075-.66-.217-.895a1.48 1.48 0 0 0-.594-.545 2.64 2.64 0 0 0-.846-.267 7.26 7.26 0 0 0-.97-.06h-1.64v3.65h1.573c.352 0 .687-.025 1.005-.083a2.92 2.92 0 0 0 .87-.3 1.67 1.67 0 0 0 .603-.578c.142-.242.218-.544.218-.912h-.001zm7.592 10.706V34.2h3.758v12.237h6.002v3.256h-9.76zm23.612 0l-1.205-3.04h-6.002l-1.138 3.04h-4.068l6.504-15.493h3.632l6.437 15.493h-4.16zm-4.16-11.36l-1.967 5.324h3.892l-1.925-5.324zm16.523-.946V49.7h-3.742V37.387h-4.386V34.2h12.505v3.188h-4.377zm7.675 12.305V34.2h10.42v3.147h-6.805v2.938h6.436v2.996h-6.436v3.223h7.198v3.2H172.7zm23.068-11.467c-.318-.4-.737-.737-1.255-.98-.52-.234-1.022-.36-1.5-.36-.25 0-.502.025-.76.067-.25.042-.486.126-.687.25a1.79 1.79 0 0 0-.52.486c-.134.193-.2.444-.2.753 0 .26.05.477.16.653a1.35 1.35 0 0 0 .485.461c.2.134.46.25.754.368l.987.335 1.64.577a6.33 6.33 0 0 1 1.556.846c.46.35.854.786 1.155 1.305s.46 1.164.46 1.934c0 .896-.16 1.666-.494 2.3-.326.653-.77 1.2-1.322 1.607-.553.427-1.2.737-1.9.946-.72.2-1.457.3-2.218.3a9.17 9.17 0 0 1-3.214-.577c-1.038-.385-1.9-.938-2.587-1.65l2.453-2.503c.385.47.88.862 1.498 1.172.62.318 1.24.477 1.85.477.285 0 .552-.033.812-.092a2 2 0 0 0 .695-.285 1.37 1.37 0 0 0 .469-.527c.117-.218.175-.477.175-.787 0-.293-.075-.535-.217-.745a2.28 2.28 0 0 0-.628-.552c-.268-.167-.603-.326-1.005-.46l-1.372-.452c-.494-.16-.98-.352-1.457-.57a4.82 4.82 0 0 1-1.264-.845c-.376-.343-.678-.753-.904-1.247-.226-.486-.334-1.08-.334-1.783 0-.862.175-1.6.527-2.2.343-.6.803-1.113 1.373-1.515.57-.393 1.214-.678 1.925-.862.72-.184 1.44-.267 2.168-.267.88 0 1.774.158 2.687.477a6.86 6.86 0 0 1 2.394 1.422l-2.387 2.52z"/><path d="M15.393 63.912c-.142-.176-.327-.318-.552-.418-.226-.11-.444-.16-.654-.16-.108 0-.217.008-.326.025a.92.92 0 0 0-.31.109.86.86 0 0 0-.217.209c-.067.092-.093.2-.093.335 0 .117.026.21.068.285a.68.68 0 0 0 .209.2c.092.06.21.11.335.16l.426.15.72.25c.25.092.477.218.678.368.21.15.377.343.5.57s.2.5.2.845c0 .393-.075.728-.218 1.013s-.334.52-.577.703a2.41 2.41 0 0 1-.829.41c-.318.092-.636.134-.97.134-.485 0-.954-.084-1.406-.25s-.828-.4-1.13-.72l1.072-1.097c.167.2.384.377.653.51a1.75 1.75 0 0 0 .811.209 1.51 1.51 0 0 0 .352-.042.98.98 0 0 0 .301-.117c.092-.058.16-.134.21-.234.05-.092.076-.21.076-.343 0-.126-.034-.235-.093-.327-.067-.092-.158-.167-.276-.242s-.268-.142-.444-.2l-.594-.2c-.218-.067-.426-.15-.636-.242a2.13 2.13 0 0 1-.552-.369c-.167-.15-.3-.334-.393-.544-.1-.217-.15-.477-.15-.786 0-.377.075-.695.226-.963.16-.268.36-.494.602-.66a2.49 2.49 0 0 1 .846-.377 3.66 3.66 0 0 1 .945-.126c.385 0 .78.076 1.18.2.393.142.744.35 1.046.628l-1.045 1.095zm8.973 5.022v-2.837H21.72v2.837H20.09v-6.78h1.632v2.56h2.645v-2.56h1.632v6.78h-1.632zM37.08 65.51a3.82 3.82 0 0 1-.277 1.473c-.184.444-.443.82-.77 1.138-.335.32-.72.56-1.18.737-.452.168-.937.25-1.473.25-.527 0-1.013-.083-1.465-.25a3.52 3.52 0 0 1-1.172-.737 3.38 3.38 0 0 1-.77-1.138c-.184-.444-.276-.937-.276-1.473a3.75 3.75 0 0 1 .276-1.465 3.2 3.2 0 0 1 .77-1.113c.335-.31.72-.544 1.172-.71s.938-.25 1.465-.25c.536 0 1.02.083 1.473.25.46.167.845.402 1.18.71.327.3.586.678.77 1.113a3.75 3.75 0 0 1 .277 1.465zm-1.758 0c0-.293-.042-.56-.142-.82-.092-.25-.226-.477-.394-.653-.167-.184-.376-.326-.61-.435a2.03 2.03 0 0 0-.795-.159 1.95 1.95 0 0 0-.778.159c-.243.11-.444.25-.62.435a1.9 1.9 0 0 0-.393.653 2.41 2.41 0 0 0-.142.82 2.54 2.54 0 0 0 .142.854c.1.25.235.477.402.66s.368.326.61.435c.235.11.494.16.778.16.293 0 .553-.05.787-.16s.444-.25.61-.435a1.89 1.89 0 0 0 .402-.661c.1-.26.142-.544.142-.854h0zm10.596-1.272c0 .402-.075.728-.225 1.005-.143.267-.344.485-.595.653-.242.167-.535.284-.862.368-.318.075-.66.11-1.012.11h-.812v2.56H40.78v-6.78h2.486a4.6 4.6 0 0 1 1.037.109 2.64 2.64 0 0 1 .846.352 1.75 1.75 0 0 1 .561.644 2.17 2.17 0 0 1 .209.98h-.001zm-1.64.008c0-.16-.033-.284-.092-.385a.65.65 0 0 0-.26-.242c-.108-.06-.234-.093-.368-.117-.142-.017-.284-.026-.427-.026h-.72v1.6h.686c.16 0 .3-.017.444-.042s.268-.067.377-.134c.108-.058.2-.15.267-.25a.81.81 0 0 0 .093-.402h-.001zm10.38-.008c0 .402-.075.728-.218 1.005-.15.267-.35.485-.594.653-.25.167-.536.284-.862.368-.326.075-.66.11-1.013.11h-.82v2.56h-1.632v-6.78h2.486a4.56 4.56 0 0 1 1.038.109 2.57 2.57 0 0 1 .845.352c.235.167.427.376.56.644.142.268.21.594.21.98h0zm-1.64.008c0-.16-.025-.284-.092-.385-.067-.11-.15-.184-.26-.242a1.23 1.23 0 0 0-.368-.117 3.4 3.4 0 0 0-.427-.026h-.72v1.6h.695c.15 0 .3-.017.435-.042.142-.025.268-.067.385-.134.11-.058.193-.15.26-.25.067-.11.093-.234.093-.402h-.001zm5.24 4.687v-6.78h1.65v6.78h-1.65zm9.97 0l-2.73-4.436h-.025l.033 4.436h-1.6v-6.78h1.866l2.72 4.42h.033l-.042-4.42h1.6v6.78h-1.857zm11.894-.418c-.335.176-.72.318-1.164.427a6.16 6.16 0 0 1-1.456.158c-.536 0-1.038-.083-1.5-.26-.452-.167-.845-.4-1.172-.728-.334-.3-.586-.686-.77-1.122s-.276-.92-.276-1.456c0-.544.092-1.038.276-1.473.193-.444.452-.82.78-1.13.334-.3.728-.544 1.172-.712s.93-.25 1.448-.25a4.52 4.52 0 0 1 1.489.243c.46.167.837.384 1.122.66l-1.038 1.172c-.16-.184-.368-.335-.628-.452s-.56-.176-.895-.176c-.285 0-.545.05-.787.16-.243.1-.46.25-.636.435-.176.193-.318.42-.42.67-.092.26-.142.544-.142.854s.042.594.134.862c.084.26.218.485.393.67a1.81 1.81 0 0 0 .653.444c.26.1.553.16.888.16a3.89 3.89 0 0 0 .544-.042c.167-.033.335-.075.477-.142v-1.24h-1.29v-1.314h2.795l.001 3.583zm14.254-.52c-.3.343-.67.61-1.113.812-.436.2-.946.3-1.524.3a4.09 4.09 0 0 1-1.448-.251 3.47 3.47 0 0 1-1.155-.737c-.326-.318-.577-.695-.76-1.138-.184-.435-.277-.92-.277-1.448 0-.544.093-1.038.277-1.473.192-.444.452-.82.786-1.13a3.44 3.44 0 0 1 1.164-.712 4.09 4.09 0 0 1 1.448-.251c.477 0 .946.084 1.406.25.47.176.845.42 1.13.745l-1.113 1.113c-.15-.21-.352-.368-.603-.468s-.502-.16-.76-.16a2.03 2.03 0 0 0-.795.159c-.235.108-.444.25-.62.435-.167.184-.3.4-.402.66a2.39 2.39 0 0 0-.142.829 2.44 2.44 0 0 0 .142.837 2.11 2.11 0 0 0 .402.661 1.91 1.91 0 0 0 .611.427c.235.1.494.15.77.15.327 0 .612-.067.854-.192a1.7 1.7 0 0 0 .586-.494l1.138 1.07v.001zm7.792.937l-.527-1.33h-2.62l-.502 1.33h-1.783l2.846-6.78h1.6l2.812 6.78h-1.816zm-1.816-4.97l-.862 2.327h1.7l-.837-2.327zm10.446 4.97l-1.473-2.695h-.56v2.695h-1.6v-6.78h2.587c.326 0 .644.033.954.1a2.44 2.44 0 0 1 .828.343c.252.16.444.368.595.628.142.26.217.586.217.98 0 .46-.125.846-.376 1.155s-.594.536-1.03.67l1.766 2.904h-1.908zm-.067-4.704c0-.158-.033-.284-.1-.384-.076-.1-.16-.176-.26-.235-.11-.05-.226-.084-.36-.11a3.19 3.19 0 0 0-.376-.025h-.88v1.582h.778c.134 0 .276-.017.418-.042a1.18 1.18 0 0 0 .385-.117c.11-.058.2-.142.277-.25s.117-.243.117-.42h0zm8.186-.677v5.382h-1.64v-5.382h-1.917v-1.398h5.466v1.398h-1.908zm12.957.36a1.37 1.37 0 0 0-.544-.418 1.5 1.5 0 0 0-.662-.159c-.108 0-.217.008-.326.025s-.21.06-.3.11a.77.77 0 0 0-.226.209c-.06.092-.092.2-.092.335a.5.5 0 0 0 .075.285c.042.075.117.142.21.2s.2.11.327.16l.435.15.72.25a2.98 2.98 0 0 1 .677.368c.2.15.37.343.503.57s.2.5.2.845c0 .393-.067.728-.21 1.013-.15.284-.343.52-.586.703s-.52.326-.828.4c-.3.092-.636.134-.97.134a4.06 4.06 0 0 1-1.406-.251c-.452-.168-.83-.4-1.13-.72l1.08-1.097c.16.2.377.377.653.51.268.142.536.21.804.21a1.65 1.65 0 0 0 .36-.042c.11-.025.218-.067.3-.117.084-.058.15-.134.2-.234a.72.72 0 0 0 .083-.343.54.54 0 0 0-.1-.327c-.067-.092-.15-.167-.268-.242-.125-.075-.268-.142-.443-.2l-.603-.2a6.61 6.61 0 0 1-.636-.242c-.2-.1-.394-.218-.552-.37s-.293-.334-.394-.544c-.1-.217-.15-.477-.15-.786 0-.377.084-.695.235-.963s.35-.494.603-.66a2.41 2.41 0 0 1 .845-.377 3.61 3.61 0 0 1 .945-.126c.377 0 .77.076 1.172.2a3 3 0 0 1 1.047.628l-1.046 1.095zm11.76 1.6a3.82 3.82 0 0 1-.277 1.473c-.184.444-.443.82-.77 1.138a3.42 3.42 0 0 1-1.172.737c-.452.168-.945.25-1.473.25-.535 0-1.02-.083-1.473-.25a3.39 3.39 0 0 1-1.163-.737 3.4 3.4 0 0 1-.779-1.138c-.184-.444-.276-.937-.276-1.473a3.75 3.75 0 0 1 .276-1.465 3.22 3.22 0 0 1 .779-1.113c.326-.31.71-.544 1.163-.71s.938-.25 1.473-.25c.528 0 1.02.083 1.473.25s.846.402 1.172.71c.327.3.586.678.77 1.113a3.75 3.75 0 0 1 .277 1.465zm-1.75 0a2.41 2.41 0 0 0-.143-.82c-.1-.25-.234-.477-.402-.653-.167-.184-.368-.326-.61-.435a2.02 2.02 0 0 0-.787-.159c-.293 0-.552.058-.786.16-.235.11-.444.25-.61.435-.176.176-.3.402-.402.653-.093.26-.134.527-.134.82 0 .3.04.594.142.854.092.25.226.477.393.66s.377.326.61.435.494.16.787.16c.285 0 .544-.05.778-.16.243-.11.444-.25.62-.435.167-.184.3-.4.402-.66a2.54 2.54 0 0 0 .142-.854h.001zm7.064-1.958v1.398h2.62v1.347h-2.62v2.637h-1.616v-6.78h4.462v1.398h-2.846zm9.408 0v5.382h-1.632v-5.382h-1.917v-1.398h5.466v1.398h-1.917zm12.454 5.38h-1.615l-1.34-4.586h-.025l-1.348 4.586h-1.624l-1.925-6.78h1.766l1.07 4.51h.026l1.205-4.51h1.708l1.213 4.51h.026l1.096-4.51h1.7l-1.934 6.78zm9.735 0l-.528-1.33h-2.628l-.494 1.33H175.1l2.846-6.78h1.59l2.812 6.78h-1.816zm-1.825-4.97l-.862 2.327h1.708l-.846-2.327zm10.446 4.97l-1.473-2.695h-.553v2.695h-1.598v-6.78h2.578c.326 0 .644.033.954.1s.586.184.837.343a1.75 1.75 0 0 1 .586.628c.15.26.218.586.218.98 0 .46-.117.846-.368 1.155s-.594.536-1.038.67l1.774 2.904h-1.917zm-.067-4.704c0-.158-.033-.284-.1-.384a.7.7 0 0 0-.259-.235c-.1-.05-.226-.084-.35-.11-.134-.016-.26-.025-.385-.025h-.87v1.582h.78c.134 0 .267-.017.4-.042a1.12 1.12 0 0 0 .384-.117c.118-.058.2-.142.285-.25s.11-.243.11-.42zm5.4 4.704v-6.78h4.56v1.38h-2.98v1.28h2.812v1.314h-2.812v1.406h3.147v1.398h-4.73z"/></g><g fill="#f9a430"><path d="M3.943 6.66h9.223l3.122 6.67h34.837l-2.41 5.28H18.758l.803 1.725h28.366l-2.42 5.28H22.03l.804 1.724H44.72l-2.4 5.274H22.917l-3.29 7.047h20.867a6.04 6.04 0 0 1 6.034 6.043 6.04 6.04 0 0 1-6.034 6.035 6.04 6.04 0 0 1-6.044-6.035c0-.26.017-.5.05-.76H22.097c.034.25.05.502.05.76a6.04 6.04 0 0 1-6.044 6.035 6.04 6.04 0 0 1-6.034-6.035c0-2.645 1.7-4.896 4.067-5.708l4.63-9.935L10.17 11.6H3.943V6.66z"/><path d="M22.834 27.344h21.888l-2.41 5.273H22.834l1.272-2.553-1.272-2.72zm-3.273-7.006h28.366l-2.42 5.28H22.03l-2.47-5.28zm-3.273-7.006h34.837l-2.41 5.28H18.758l-2.47-5.28z"/></g><path d="M18.758 18.613h2.3l-2.46-5.28h-2.31z" fill="#a76507"/><path d="M20.14 18.613h2.05l-2.47-5.28h-2.05l2.47 5.28z" fill="#b7720f"/><path d="M21.52 18.613h1.79l-2.47-5.28h-1.79l2.47 5.28z" fill="#c87e17"/><path d="M22.9 18.613h1.53l-2.46-5.28h-1.54l2.47 5.28z" fill="#d88b20"/><path d="M24.282 18.613h1.28l-2.47-5.28h-1.28l2.47 5.28z" fill="#e99728"/><path d="M25.67 18.613h1.013l-2.47-5.28h-1.013z" fill="#f9a430"/><path d="M22.03 25.62h1.892l-2.47-5.28H19.56z" fill="#a76507"/><path d="M23.41 25.62h1.716l-2.47-5.28h-1.716l2.47 5.28z" fill="#b7720f"/><path d="M24.792 25.62h1.54l-2.46-5.28h-1.548l2.47 5.28h-.001z" fill="#c87e17"/><path d="M26.174 25.62h1.372l-2.47-5.28h-1.364l2.46 5.28z" fill="#d88b20"/><path d="M27.563 25.62h1.19l-2.47-5.28h-1.19l2.47 5.28z" fill="#e99728"/><path d="M28.944 25.62h1.013l-2.47-5.28h-1.013z" fill="#f9a430"/><g fill="#a76507"><path d="M25.713 32.617h-2.88l1.272-2.553h.4z"/><path d="M25.303 32.617h1.892l-2.47-5.273h-1.89z"/></g><path d="M26.684 32.617H28.4l-2.47-5.274h-1.716l2.47 5.274z" fill="#b7720f"/><path d="M28.065 32.617h1.548l-2.47-5.274h-1.54l2.46 5.274z" fill="#c87e17"/><path d="M29.454 32.617h1.365l-2.47-5.274h-1.364l2.47 5.274z" fill="#d88b20"/><path d="M30.836 32.617h1.188l-2.47-5.274h-1.19l2.47 5.274z" fill="#e99728"/><path d="M32.217 32.617h1.02l-2.47-5.273h-1.022z" fill="#f9a430"/></svg>