<svg xmlns="http://www.w3.org/2000/svg" width="16" height="16" shape-rendering="geometricPrecision" image-rendering="optimizeQuality" fill-rule="evenodd" fill="#e6e6e6" xmlns:v="https://vecta.io/nano"><path d="M12.142 12.43c-1.084 1.014-2.54 1.635-4.142 1.635s-3.058-.62-4.142-1.635C4.81 11.187 6.312 10.385 8 10.385s3.19.802 4.142 2.046zM8 3.868c1.483 0 2.686 1.202 2.686 2.686S9.483 9.24 8 9.24 5.314 8.037 5.314 6.554 6.517 3.868 8 3.868z"/><path d="M8 14.995c3.863 0 6.995-3.132 6.995-6.995S11.863 1.005 8 1.005 1.005 4.137 1.005 8 4.137 14.995 8 14.995zm0-1.322c3.133 0 5.673-2.54 5.673-5.673S11.133 2.327 8 2.327 2.327 4.867 2.327 8 4.867 13.673 8 13.673z"/></svg>