<svg xmlns="http://www.w3.org/2000/svg" width="16" height="16" shape-rendering="geometricPrecision" image-rendering="optimizeQuality" fill-rule="evenodd" xmlns:v="https://vecta.io/nano"><path d="M8 1a7 7 0 1 1 0 14A7 7 0 1 1 8 1zm-.33 12.668a8.05 8.05 0 0 1-1.744-2.628 8.23 8.23 0 0 1 1.745-.256l-.001 2.884zM5.7 10.4a8 8 0 0 1-.361-2.082H7.67v1.8a8.89 8.89 0 0 0-1.971.292zm-.36-2.738A8.05 8.05 0 0 1 5.7 5.59a8.89 8.89 0 0 0 1.971.292v1.8H5.34zm.587-2.712c.405-1 1.002-1.88 1.744-2.628h.001v2.884c-.6-.023-1.184-.1-1.745-.256zm.723-2.476A8.68 8.68 0 0 0 5.296 4.77c-.502-.173-.983-.393-1.436-.655a5.67 5.67 0 0 1 2.789-1.631zM5.072 5.398c-.226.722-.36 1.484-.4 2.274h-2.35c.064-1.134.462-2.18 1.096-3.04.517.308 1.067.565 1.644.765zm-.39 2.93c.03.8.163 1.552.39 2.274-.577.2-1.127.457-1.644.765-.634-.86-1.032-1.905-1.096-3.04h2.35zm.613 2.9a8.67 8.67 0 0 0 1.353 2.287 5.67 5.67 0 0 1-2.788-1.631 8.21 8.21 0 0 1 1.435-.656zm6.843-7.115a8.21 8.21 0 0 1-1.435.656c-.333-.833-.792-1.602-1.352-2.285 1.084.265 2.047.84 2.787 1.63zM8.33 2.332a8.06 8.06 0 0 1 1.743 2.628 8.21 8.21 0 0 1-1.744.256V2.332h.001zm-.001 3.55a8.89 8.89 0 0 0 1.971-.293 8.05 8.05 0 0 1 .361 2.083H8.33v-1.8zm2.332 2.446c-.03.723-.153 1.42-.36 2.082a8.89 8.89 0 0 0-1.971-.292v-1.8h2.332zM8.33 10.784a8.21 8.21 0 0 1 1.744.256c-.405.99-1 1.88-1.743 2.628H8.33v-2.884zm1.023 2.73c.56-.683 1.02-1.452 1.352-2.285a8.28 8.28 0 0 1 1.435.655 5.67 5.67 0 0 1-2.787 1.63zm3.22-2.147a8.91 8.91 0 0 0-1.643-.766c.226-.722.36-1.484.39-2.274h2.35a5.64 5.64 0 0 1-1.097 3.04zm-1.254-3.696c-.03-.8-.163-1.552-.39-2.274.577-.2 1.127-.457 1.644-.766a5.65 5.65 0 0 1 1.096 3.04h-2.35z" fill="#e6e6e6"/></svg>